<svg viewBox="0 0 254 75.588799"
    xmlns="http://www.w3.org/2000/svg">
    <g transform="matrix(1.25,0,0,-1.25,-22.657374,641.20022)" fill="#ff8028" stroke="#fff" stroke-width="1">
        <path d="m 107.00261,472.34671 -0.78764,0.24206 -0.85603,0.18275 -0.65138,0.13199 c -0.0957,0.0208 -0.81221,0.16725 -1.79275,0.24794 -1.02115,0.0844 -2.3939,0.10366 -3.662452,-0.20466 l -0.543971,-0.10741 -0.474505,-0.0844 -0.322749,-0.0625 -0.369237,-0.054 -0.290154,0 -0.384199,0.0406 c -0.06466,0.0219 -0.196108,0.0791 -0.28481,0.15229 -0.138932,0.11542 -0.406108,0.40718 -0.406108,1.21351 0,0.65886 0.414123,1.30008 1.014735,1.86062 0.284276,0.2645 0.572826,0.47504 0.794048,0.62359 0.110611,0.0727 0.20252,0.12985 0.266108,0.16832 0.576032,0.34893 0.579772,0.8726 0.579772,0.8929 0.03954,0.89932 0.02031,5.51131 0.02031,5.51131 l -1.528783,0.21161 -0.06947,-0.001 c -0.123969,-0.002 -8.201242,-0.0855 -8.503686,8.37704 -0.09725,2.72948 1.270156,4.21231 2.734816,5.06994 0.747025,0.4371 1.511149,0.70161 2.097334,0.85764 0.610765,0.16137 1.046797,0.21053 1.051606,0.2116 0.209466,0.0561 3.595124,1.38558 3.595124,1.38558 0,0 -3.388864,0.72244 -3.681689,0.8416 -0.327024,0.13412 -0.764659,0.35909 -1.201225,0.72565 -0.842674,0.70588 -1.760691,1.99474 -1.771378,4.41162 -0.0096,2.27901 1.092216,3.38993 2.213822,3.99161 0.581376,0.3126 1.173973,0.48519 1.625501,0.57977 0.223359,0.0476 0.407711,0.0748 0.535421,0.0903 0.09939,0.0128 0.185954,0.0358 0.261298,0.0657 0.11168,0.004 0.308856,-0.0272 0.481986,-0.0304 0.391146,-0.007 0.740078,-0.031 0.859239,-0.0582 1.216721,-0.27305 1.678936,-0.34038 1.678936,-0.34038 l 1.19962,-0.21588 0.91481,-0.13359 1.09222,-0.15496 1.03183,-0.0914 1.30489,-0.1726 1.05802,-0.0689 1.71474,-0.11061 1.39359,-0.086 1.27977,-0.0465 c 0,0 1.86757,-0.0118 4.28551,0.11488 2.43986,0.12825 5.4504,0.40077 7.72834,0.96024 2.1497,0.52954 2.45268,-0.39756 2.43772,-1.23329 -0.0219,-1.29313 -0.89237,-2.66802 -1.6939,-2.94642 0,0 -0.63641,-0.54771 -0.64443,-1.21351 l -0.009,-0.84749 -0.024,-3.01481 -0.0647,-9.14117 -0.0908,-13.64149 0.51565,-0.67168 0.36817,-0.3329 0.32756,-0.27359 0.26664,-0.24153 c 0.0235,-0.0246 0.0572,-0.0598 0.0957,-0.10954 0.0454,-0.0588 0.10366,-0.14374 0.16084,-0.26237 0.10954,-0.22977 0.23458,-0.62305 0.21695,-1.2413 -0.0379,-1.38077 -0.8026,-1.86916 -1.04092,-1.85527 -1.02008,0.0636 -2.91222,0.47237 -2.91222,0.47237 l -0.70695,0.0978 -0.72939,0.0224 -0.61718,0 -0.61932,-0.0208 c -0.0764,-0.003 -0.6503,-0.0176 -1.33802,-0.0743 -0.69946,-0.0577 -1.6474,-0.16618 -2.27527,-0.38954 -0.14,-0.0486 -0.37191,-0.085 -0.47931,-0.0989 l -0.40985,0.015 -0.22015,0.0476 c -0.0791,0.0497 -0.23512,0.16031 -0.35268,0.29069 -0.22122,0.24741 -0.50229,0.70855 -0.5087,1.56031 -0.0134,1.41176 1.92794,2.26459 2.10855,2.33405 l 0.61237,0.23458 0,5.79185 -8.2333,0 0,-6.01467 0.67008,-0.20787 c 0.0983,-0.0304 1.45611,-0.51725 1.3642,-1.83496 -0.12557,-1.83016 -1.07619,-2.28382 -1.1542,-2.29879 -0.10741,-0.0198 -0.19023,-0.0299 -0.25596,-0.0342 l 0.004,-0.005 z m 5.39161,29.83771 c -0.72939,-0.24901 -1.68695,-0.71763 -2.63649,-1.59771 -1.92527,-1.78367 -3.65871,-5.09826 -3.63467,-11.1669 0,-0.0166 0.23779,-0.97252 1.21619,-0.98214 l 0.7684,-0.003 c 0.6316,-5.3e-4 1.47267,0 2.31428,0.002 1.68214,0.003 4.2994,0.0123 4.2994,0.0123 l -0.055,14.05507 c 0,0 -1.49672,-0.0534 -2.27207,-0.31901" />
        <path d="m 70.513222,508.65687 c 1.169698,0.2223 2.045502,0.44726 2.220235,0.49321 l 1.656493,0.32489 0.821834,0.11114 1.077255,0.0882 c 0,0 0.615574,0.0566 1.527714,-0.0337 0.946872,-0.0935 2.190845,-0.34092 3.420925,-0.94581 2.375731,-1.16756 4.885585,-3.75008 4.876501,-9.77651 -0.0069,-5.38681 -7.527424,-10.81423 -7.680784,-10.92323 l -0.255954,-0.18115 c 0,0 -0.674353,-2.03428 0.957025,-8.16865 1.565119,-5.88375 4.214438,-9.53872 4.253981,-9.59323 l 0.740078,-1.01847 c 0,0 0.836796,1.13763 0.981605,1.28565 0.175802,0.17847 0.457941,0.43069 0.858705,0.68557 0.79672,0.5071 2.090921,1.0468 4.015659,1.03451 1.326798,-0.007 7.581394,-1.49459 7.187042,-8.73132 -0.224428,-4.06856 -2.080234,-5.96017 -3.817949,-6.89208 -0.895575,-0.48038 -1.787409,-0.71657 -2.461228,-0.83145 -0.56107,-0.0967 -0.958628,-0.10634 -1.059086,-0.10687 -0.254887,0.0128 -0.643895,-0.0123 -1.156339,0.0102 -0.469696,0.0203 -1.057484,0.0892 -1.751608,0.29229 -1.385576,0.40771 -3.286802,1.3813 -5.598412,3.76024 -2.373594,2.44092 -3.600467,4.25024 -4.445813,5.83192 -0.8913,1.66932 -1.394125,3.13077 -2.259777,4.78887 -1.66237,3.18207 -3.489322,11.07125 -3.501612,11.12682 l -0.220153,1.07512 -0.952216,0.27573 -0.37191,-0.0411 -0.329161,-0.0406 -2.463899,-0.97038 c 0,0 -0.06092,-1.68535 -0.07909,-2.72841 -0.0091,-0.53061 -0.01336,-1.06122 -0.0064,-1.46359 0.0037,-0.22389 0.01122,-0.41252 0.02244,-0.54611 0.06679,-0.76733 0.603818,-1.00939 0.724582,-1.04412 0.02886,-0.008 0.160306,-0.0444 0.340917,-0.11916 0.18542,-0.078 0.41252,-0.19184 0.62733,-0.35001 0.423207,-0.31045 0.741147,-0.73366 0.734735,-1.38611 -0.01389,-1.56458 -1.29153,-1.54427 -1.369012,-1.5416 0,0 -1.362599,0.0251 -2.879091,0.42374 -0.927636,0.2442 -2.039624,0.29924 -2.874817,0.30244 -0.860307,0.003 -1.618019,-0.0609 -1.618019,-0.0609 l -0.106336,-0.0374 c -0.93298,-0.32114 -2.148098,-0.45206 -2.528557,-0.48573 -0.134656,0.0118 -0.460611,0.0577 -0.743818,0.21481 -0.261299,0.14588 -0.483055,0.3655 -0.467559,0.91749 0.04061,1.43687 2.276876,2.35329 2.496495,2.4313 l 0.635345,0.22657 -0.02137,12.61018 c 0,0 0.02031,11.71194 0,15.68859 l -0.0037,0.78016 -0.729926,0.16779 c -1.838707,0.42427 -2.560617,1.23649 -2.86787,1.80824 -0.163512,0.30405 -0.235115,0.58779 -0.268245,0.79833 -0.01656,0.1074 -0.02351,0.19664 -0.02725,0.25969 -0.01176,0.20359 -0.05237,0.35855 -0.09031,0.46435 0.02084,0.18329 0.149618,0.36176 0.237252,0.57176 0.153359,0.36924 0.41252,0.65619 1.021148,0.63107 l 0.229772,0 c 0.06519,-0.0192 0.210534,-0.0604 0.293893,-0.0967 0.148016,-0.0636 0.316337,-0.1432 0.510841,-0.23244 0.426414,-0.19557 0.966644,-0.43496 1.66344,-0.66901 1.412294,-0.47397 3.419856,-0.91 6.352383,-0.9426 1.497256,-0.0171 3.196497,0.22603 4.521691,0.47771 m -4.05253,-18.37905 c 0,0 0.997102,-0.18649 1.37863,-0.17527 0.315268,0.0107 0.77588,0.0572 1.354049,0.21 1.128553,0.29871 2.645045,0.98588 4.365661,2.50184 1.265346,1.11252 2.468708,2.78879 2.656266,5.97513 0.199314,3.38673 -1.461454,4.95719 -3.090161,5.86933 -0.926567,0.51939 -1.936493,0.57176 -2.650388,0.5242 -0.752903,-0.0518 -1.305958,-0.22764 -1.305958,-0.22764 l -0.302978,-0.10473 -0.243665,-0.0647 -0.340916,-0.10954 -0.368169,-0.14267 -0.288551,-0.15176 -0.335573,-0.16137 -0.828247,-0.74702 0,-13.19584 z" />
        <path d="m 55.575076,489.75624 c -0.07855,-8.36529 -6.84559,-19.24845 -17.564702,-19.11486 -10.735143,0.13252 -17.493634,10.95636 -17.346152,19.75875 0.148015,8.88522 6.769712,20.10074 17.566839,19.8496 12.481407,-0.28962 17.424168,-12.02026 17.344015,-20.49349 m -22.690746,6.04673 c 0.0358,-4.12467 1.466798,-9.55529 5.316808,-9.67285 7.429103,-0.22389 7.027804,19.14959 -0.05824,19.20143 -3.959552,0.0283 -5.293296,-5.42849 -5.258563,-9.52858" />
        <path d="m 130.79123,490.44374 -0.0256,8.85956 -0.0112,2.92344 -0.005,0.82344 c -0.005,0.71924 -0.36657,1.05481 -0.37084,1.05855 -1.49619,1.13871 -2.16787,2.36505 -2.20794,3.6881 -0.0353,1.16703 0.76626,2.4094 2.51199,2.57719 1.84565,0.17687 5.21421,-1.86222 5.31627,-1.92528 l 0.77107,-0.49374 0.61825,-0.16885 c 0,0 0.69359,0.11862 0.78443,0.17954 1.80557,1.01848 4.82199,1.7639 6.35612,1.68161 0.63855,-0.0326 1.07405,-0.0476 1.42726,-0.0711 0.30778,-0.0203 0.54343,-0.0465 0.81168,-0.10367 0.60595,-0.12984 1.35832,-0.39916 3.20344,-1.00778 3.43001,-1.13283 6.3262,-5.66681 6.35773,-5.71544 0,0 0.64443,-0.94794 1.25305,-2.42382 0.62413,-1.51115 1.19535,-3.53047 1.0826,-5.67536 -0.12183,-2.33245 -0.46328,-3.71803 -0.83947,-4.73543 -0.41626,-1.12535 -0.89236,-1.89161 -1.26,-2.86413 -0.6626,-1.75428 -5.93933,-8.30117 -6.01841,-8.39949 l -0.2271,-0.30725 -0.21321,-0.37619 -0.0983,-0.49801 5.3e-4,-0.44779 0.0529,-0.47878 0.32702,-0.57817 0.49641,-0.45741 0.58245,-0.18168 0.52259,0 0.521,0.0924 0.42374,0.22442 c 0.94741,0.63588 1.51222,0.85657 1.74626,0.91375 0.0561,0.0128 0.0914,0.0224 0.11542,0.0208 0.35642,-0.0283 0.50069,0.0288 0.5226,0.0374 0.12237,-0.039 0.36069,-0.16832 0.51458,-0.31473 0.29336,-0.27787 0.57764,-0.77748 0.5413,-1.57955 -0.0374,-0.81061 -0.33397,-1.17397 -0.54344,-1.34977 -0.11809,-0.0994 -0.23404,-0.15977 -0.3174,-0.19344 l -0.54611,-0.0892 -0.42534,-0.003 -0.48787,0.0454 -0.49267,0.0994 -0.43176,0.0834 -0.62946,0.0876 -0.6813,0.0289 -0.79191,0.0534 -1.01795,0.0802 -1.50046,0.001 -1.43527,-0.0513 -1.07832,-0.0855 -1.26001,-0.13519 -0.6674,-0.0769 -0.37458,-0.0214 c -0.65565,0.009 -0.78497,0.37672 -0.80527,0.85656 -0.0155,0.37405 0.26557,1.00192 0.28374,1.03825 0.0379,0.0748 0.12397,0.23725 0.13038,0.2458 3.14092,4.76108 4.08192,8.34552 4.18452,8.76766 0.0636,0.20733 0.42481,1.41603 0.78549,2.97795 0.39168,1.69229 0.80314,3.88153 0.80581,5.67215 0.002,2.07542 -0.39168,3.94993 -0.78497,5.32108 -0.37137,1.29634 -0.7513,2.1326 -0.77481,2.22505 -0.0657,0.26076 -1.59932,3.77199 -4.41268,3.87672 -1.30115,0.0481 -2.32924,-0.39969 -3.02283,-0.85229 -0.3484,-0.2255 -0.61558,-0.45527 -0.80046,-0.63214 -0.20573,-0.19771 -0.31955,-0.34305 -0.31955,-0.34305 l -0.41305,-0.54397 0.001,-25.31228 c 0,0 0.65458,-0.2971 0.73687,-0.34787 0.11061,-0.0668 0.25809,-0.17046 0.40237,-0.31687 0.27412,-0.27946 0.5429,-0.71229 0.51725,-1.41015 -0.0278,-0.74649 -0.29603,-1.07298 -0.47664,-1.22902 -0.1042,-0.0887 -0.2068,-0.14267 -0.28,-0.17313 l -0.36336,-0.0299 -0.39916,0.0401 -0.4168,0.0716 -0.39542,0.10046 -0.56695,0.11221 -0.30618,0.054 c -1.30596,0.33077 -3.00413,0.32703 -4.30795,0.25863 -1.35138,-0.0721 -2.42863,-0.22764 -2.42863,-0.22764 l -0.42214,-0.0871 -0.50657,-0.12023 -0.24046,-0.0198 c -0.17206,0.008 -1.01046,0.10527 -1.02275,1.25413 -0.0155,1.38611 1.90337,2.14436 2.09947,2.21008 l 0.65084,0.21802 -0.0331,13.595 z" />
        <path d="m 181.28755,470.79639 c 0.005,0.37084 0.009,0.74169 0.009,1.02008 0.001,1.07726 -0.98053,1.43314 -1.01527,1.42993 -4.43993,-0.23191 -7.53009,0.83252 -9.60712,2.02947 -1.04359,0.60168 -1.8371,1.24184 -2.41421,1.78581 -0.28801,0.27091 -0.5242,0.51885 -0.71068,0.72618 -0.19184,0.21428 -0.33344,0.38634 -0.43016,0.49962 -3.17245,3.76184 -5.00154,8.1088 -4.76749,12.654 0.20359,3.92376 1.15313,6.743 2.1497,8.70621 0.49908,0.98321 1.01313,1.75856 1.46092,2.35703 0.46008,0.61504 0.85015,1.04626 1.08687,1.32573 2.07596,2.45054 4.50673,3.61329 6.43093,4.16421 0.9581,0.27466 1.78741,0.39595 2.38001,0.44779 0.28855,0.0262 0.51939,0.0347 0.67916,0.0374 0.0812,0 0.12718,0.007 0.12825,0.006 1.94932,-0.3158 3.19863,-0.2816 4.00764,-0.13091 0.40664,0.0764 0.70855,0.18168 0.93138,0.29122 0.14427,0.0716 0.22229,0.13572 0.23404,0.1416 1.26054,0.70428 2.11123,0.98161 2.61459,1.07993 0.22657,0.0438 0.39703,0.0566 0.52046,0.054 0.10634,-0.002 0.17046,-0.0166 0.20252,-0.0224 0.0524,-0.008 0.29443,-0.0139 0.62092,-0.0631 0.27519,-0.0411 0.58939,-0.11435 0.86939,-0.24259 0.49267,-0.22604 0.84641,-0.56535 0.72138,-1.43688 -0.75451,-5.2965 0.55946,-7.39864 1.06603,-7.81597 0.35321,-0.29817 0.42588,-0.47558 0.44405,-0.53115 0.0102,-0.0321 0.0155,-0.0663 0.0171,-0.11649 0.003,-0.0935 -0.004,-0.18061 -0.008,-0.26237 -0.0401,-0.90786 -0.53863,-1.26855 -1.90657,-1.44809 -0.89237,-0.11596 -2.57344,1.29206 -2.78024,1.47374 -0.0513,0.0502 -0.19183,0.18329 -0.40771,0.36123 -0.25916,0.21374 -0.63321,0.49587 -1.09328,0.77107 -0.90573,0.54343 -2.22932,1.11519 -3.72017,1.00885 -3.22748,-0.23084 -5.07207,-2.37359 -6.08413,-4.60131 -0.99817,-2.19832 -1.25092,-4.59169 -1.30863,-5.70742 -0.11008,-2.12992 0.13572,-6.62864 2.24428,-8.98513 2.06206,-2.30627 3.55665,-2.44467 5.76139,-2.40085 1.2413,0.0251 2.05298,0.47611 2.49329,1.16596 0.20305,0.31687 0.29015,0.63214 0.32649,0.86725 0.0267,0.18008 0.0267,0.32061 0.0235,0.39863 l 0.10313,6.17925 -0.54825,0.26878 c -0.13572,0.0668 -1.94718,1.04947 -1.94237,2.43611 0.002,0.70535 0.26504,0.92817 0.42695,1.0297 0.10901,0.0684 0.22549,0.10687 0.31954,0.12825 l 0.40076,-0.0331 0.27146,-0.0299 c 0.23458,-0.0614 1.02649,-0.26771 1.37221,-0.33985 0.44298,-0.0903 1.89482,-0.39221 3.26543,-0.47343 0.801,-0.0476 1.77031,0.13946 2.47566,0.31099 0.7358,0.17687 1.36847,0.39008 1.36847,0.39008 l 0.0657,0.0347 c 0.0241,0.0128 0.74489,0.37619 1.24023,0.3671 0.29069,-0.005 1.07726,-0.20198 1.14512,-1.71634 0.0604,-1.33267 -1.45932,-2.1839 -1.5555,-2.23359 l -0.51672,-0.26237 -0.3329,-20.05639 c -0.0807,-3.18207 -1.59772,-6.93536 -3.54062,-9.2972 -1.82161,-2.21489 -5.25055,-3.62077 -9.84331,-3.46046 -4.52383,0.15763 -7.07964,1.26374 -7.02941,6.80284 0.0508,5.58184 4.93528,7.60918 6.7291,7.59689 0.9068,-0.005 1.79383,-0.24741 2.47299,-0.50176 0.64924,-0.24366 2.42703,-1.26428 2.42703,-1.26428 0,0 0.0449,2.35009 0.0556,3.08535" />
        <path d="m 196.67364,491.55107 c 0.0187,3.50803 0.0353,7.01979 0.0417,9.66056 0.004,1.32146 0.004,2.42543 0.002,3.20184 -0.002,0.39329 -0.003,0.70268 -0.007,0.91642 -0.009,0.62626 -0.22496,0.93779 -0.23885,0.95489 -0.20626,0.24794 -0.45367,0.50282 -0.71123,0.75557 -0.23137,0.22764 -0.47183,0.45313 -0.68878,0.66794 -0.21267,0.21214 -0.36603,0.37832 -0.46114,0.5055 0.0187,1.10397 0.92496,1.15848 0.97519,1.16168 l 1.12962,0.054 1.73077,-0.086 1.52344,-0.16511 1.91779,-0.11863 5.32589,-0.10153 1.76497,0.0492 2.24321,0.12023 1.35245,0.0294 1.72222,0.1368 c 0.85282,0.0946 1.18519,-0.20894 1.32733,-0.39489 0.0908,-0.12076 0.14748,-0.25168 0.18168,-0.35641 0.0219,-0.0679 0.07,-0.29978 0.07,-0.29978 l 0.24687,-0.64977 0.25435,-0.85817 0.34092,-1.03237 0.32649,-1.10023 0.36122,-1.16542 0.28748,-0.8913 0.60168,-1.79703 0.29603,-0.85443 0.19985,-0.91267 c -0.009,-0.0754 -0.0337,-0.20466 -0.078,-0.29123 -0.0545,-0.10419 -0.23778,-0.41038 -1.05,-0.4558 -0.73954,-0.0406 -1.37916,0.31848 -1.96214,0.86458 -0.28855,0.26985 -0.54183,0.56642 -0.77,0.84802 l -0.32168,0.40183 c -0.0951,0.11756 -0.20413,0.25008 -0.3142,0.36069 -1.53733,1.55764 -2.8326,2.30039 -3.80245,2.64238 -0.48466,0.17152 -0.87901,0.24045 -1.17398,0.26183 -0.21267,0.016 -0.36603,0.007 -0.45687,-0.001 l -5.62727,-0.009 0.015,-8.32895 c 0,0 1.77939,-0.0444 2.64985,-0.0636 l 1.20336,-0.0246 0.40665,-0.004 c 0.59847,-0.002 0.8961,0.37993 0.90946,0.39703 0.17527,0.26237 0.82558,0.93244 2.04978,0.86298 1.30649,-0.0737 1.7826,-0.59153 1.98245,-0.93084 0.11649,-0.19665 0.17527,-0.39382 0.20145,-0.54291 0.0203,-0.1074 0.0224,-0.18649 0.0224,-0.18649 0,0 -0.0406,-5.30612 -0.0956,-6.11619 -0.0406,-0.60543 -0.7871,-1.30115 -2.44733,-1.3236 -1.12054,-0.0155 -1.98886,1.31184 -2.0284,1.37543 l -0.2784,0.45901 -4.46345,-0.046 -0.13519,-12.25431 c 0,0 3.81207,-0.0593 5.59841,-0.0631 1.22313,-0.003 2.44306,0.81275 3.23444,1.44436 0.4216,0.33557 0.78763,0.67488 1.05534,0.93404 0.13145,0.12825 0.23779,0.23619 0.31474,0.31527 0.44084,0.34947 0.8603,0.91107 1.17344,1.35833 0.30618,0.4387 0.62305,0.9287 0.97412,1.37542 0.68611,0.87634 1.24344,1.23916 1.89,1.13603 1.16863,-0.18542 1.02917,-1.34496 0.95436,-1.69443 -0.25382,-0.67382 -2.50077,-6.6404 -2.61085,-6.97383 -0.35267,-1.08314 -0.67542,-1.47535 -0.80366,-1.59451 0.0844,-0.008 0.20519,-0.0144 0.20519,-0.0144 l -0.20733,-0.004 -0.30619,-0.0433 -0.76305,-0.0305 -1.08474,0.0705 -1.56405,0.085 -1.40802,0.0572 -1.66878,0.11221 -1.70084,0.0582 -1.44543,0.0273 -1.26267,-0.002 -2.10802,0.039 -1.05535,-0.0347 -1.05267,-0.0363 -0.93779,-0.0379 -0.79832,-0.0454 -0.69413,-0.0983 -0.38366,-0.0492 -0.45901,-0.0791 -0.29764,-0.062 -0.40985,-0.0182 -0.27732,-0.0144 -0.3452,0.0401 -0.24419,0.0871 c -0.0978,0.031 -0.9752,0.38045 -0.94848,1.17076 0.055,1.66398 1.97817,2.26886 2.10107,2.30253 l 0.69359,0.18969 c 0,0 0.0529,7.75185 0.0908,14.76683" />

    </g>
    <path fill="#fff" stroke="#fff" stroke-width="1" d="M 117.437 61.868 Q 117.341 61.059 116.659 60.611 Q 115.977 60.164 114.987 60.164 Q 114.262 60.164 113.722 60.398 Q 113.181 60.632 112.88 61.043 Q 112.579 61.453 112.579 61.975 Q 112.579 62.412 112.789 62.723 Q 113 63.035 113.33 63.24 Q 113.66 63.445 114.023 63.575 Q 114.385 63.706 114.688 63.786 L 115.796 64.084 Q 116.222 64.196 116.747 64.393 Q 117.272 64.59 117.754 64.928 Q 118.236 65.267 118.55 65.794 Q 118.864 66.321 118.864 67.088 Q 118.864 67.973 118.404 68.686 Q 117.943 69.4 117.061 69.821 Q 116.18 70.242 114.923 70.242 Q 113.751 70.242 112.896 69.864 Q 112.041 69.485 111.554 68.809 Q 111.066 68.132 111.002 67.238 L 112.366 67.238 Q 112.419 67.855 112.784 68.258 Q 113.149 68.66 113.711 68.854 Q 114.273 69.049 114.923 69.049 Q 115.679 69.049 116.281 68.801 Q 116.883 68.553 117.235 68.108 Q 117.586 67.664 117.586 67.067 Q 117.586 66.524 117.282 66.183 Q 116.979 65.842 116.483 65.629 Q 115.988 65.416 115.413 65.256 L 114.07 64.872 Q 112.792 64.505 112.046 63.823 Q 111.301 63.141 111.301 62.039 Q 111.301 61.122 111.799 60.438 Q 112.297 59.753 113.141 59.373 Q 113.985 58.992 115.029 58.992 Q 116.084 58.992 116.904 59.367 Q 117.725 59.743 118.207 60.393 Q 118.689 61.043 118.715 61.868 Z M 124.174 60.313 L 124.174 59.141 L 132.356 59.141 L 132.356 60.313 L 128.926 60.313 L 128.926 70.05 L 127.604 70.05 L 127.604 60.313 Z M 138.722 70.05 L 137.337 70.05 L 141.343 59.141 L 142.707 59.141 L 146.712 70.05 L 145.327 70.05 L 142.068 60.867 L 141.982 60.867 Z M 139.234 65.789 L 144.816 65.789 L 144.816 66.961 L 139.234 66.961 Z M 161.746 62.55 L 160.425 62.55 Q 160.308 61.98 160.017 61.549 Q 159.727 61.117 159.314 60.821 Q 158.901 60.526 158.401 60.377 Q 157.9 60.228 157.357 60.228 Q 156.366 60.228 155.564 60.728 Q 154.763 61.229 154.291 62.204 Q 153.82 63.179 153.82 64.595 Q 153.82 66.012 154.291 66.987 Q 154.763 67.962 155.564 68.463 Q 156.366 68.963 157.357 68.963 Q 157.9 68.963 158.401 68.814 Q 158.901 68.665 159.314 68.369 Q 159.727 68.074 160.017 67.64 Q 160.308 67.206 160.425 66.641 L 161.746 66.641 Q 161.597 67.477 161.203 68.138 Q 160.808 68.798 160.223 69.259 Q 159.637 69.72 158.909 69.959 Q 158.182 70.199 157.357 70.199 Q 155.961 70.199 154.874 69.517 Q 153.788 68.836 153.165 67.578 Q 152.541 66.321 152.541 64.595 Q 152.541 62.87 153.165 61.613 Q 153.788 60.355 154.874 59.674 Q 155.961 58.992 157.357 58.992 Q 158.182 58.992 158.909 59.231 Q 159.637 59.471 160.223 59.932 Q 160.808 60.393 161.203 61.051 Q 161.597 61.708 161.746 62.55 Z M 167.725 70.05 L 167.725 59.141 L 169.046 59.141 L 169.046 64.553 L 169.174 64.553 L 174.074 59.141 L 175.8 59.141 L 171.219 64.063 L 175.8 70.05 L 174.202 70.05 L 170.409 64.979 L 169.046 66.513 L 169.046 70.05 Z" />
</svg>